<?xml version="1.0" encoding="UTF-8"?>
<svg width="53px" height="53px" viewBox="0 0 53 53" version="1.1" xmlns="http://www.w3.org/2000/svg" xmlns:xlink="http://www.w3.org/1999/xlink">
    <!-- Generator: Sketch 52.1 (67048) - http://www.bohemiancoding.com/sketch -->
    <title>Group 5</title>
    <desc>Created with Sketch.</desc>
    <g id="Page-2" stroke="none" stroke-width="1" fill="none" fill-rule="evenodd">
        <g id="Desktop-HD-Copy-2" transform="translate(-1344.000000, -943.000000)">
            <g id="Group-5" transform="translate(1370.500000, 969.500000) scale(-1, 1) translate(-1370.500000, -969.500000) translate(1344.000000, 943.000000)">
                <rect id="Rectangle" fill="#FFFFFF" fill-rule="nonzero" x="0" y="0" width="52.5" height="52.5" rx="26.25"></rect>
                <path d="M18.3270624,27.1539303 C18.1216128,26.8795118 18,26.5382919 18,26.1666667 C18,25.797236 18.121063,25.4561833 18.3262694,25.1812883 C18.403157,24.9981794 18.5147397,24.8258583 18.6612462,24.6741464 L25.6333453,17.4543265 C26.2657148,16.7994887 27.3047919,16.7770153 27.9643891,17.413981 C28.6194196,18.0465365 28.6392623,19.0886504 28.0054204,19.7450129 L23.3963158,24.5178804 L36.3463006,24.5178804 C37.2596136,24.5178804 38,25.2497186 38,26.1666667 C38,27.0772662 37.26447,27.8154529 36.3463006,27.8154529 L23.3963158,27.8154529 L28.0054204,32.5883205 C28.6392623,33.2446829 28.6194196,34.2867968 27.9643891,34.9193524 C27.3047919,35.556318 26.2657148,35.5338446 25.6333453,34.8790068 L18.6612462,27.6591869 C18.5152427,27.5079958 18.4039234,27.3363368 18.3270624,27.1539303 Z" id="Back-Arrow-(30x30)" fill="#1ABC9C"></path>
            </g>
        </g>
    </g>
</svg>